name rise44.8762peak52.3436fall86.788.mot
datacolumns 19
datarows 20
range 12.37328500000000 12.40495100000000
endheader
time	ground_force1_vx	ground_force1_vy	ground_force1_vz	ground_force1_px	ground_force1_py	ground_force1_pz	ground_force2_vx	ground_force2_vy	ground_force2_vz	ground_force2_px	ground_force2_py	ground_force2_pz	ground_torque1_x	ground_torque1_y	ground_torque1_z	ground_torque2_x	ground_torque2_y	ground_torque2_z	
12.37328500000000	-10.39305300000000	42.61977800000000	-10.54967600000000	0.26467300000000	0.00000000000000	0.09877400000000	-49.97099900000000	795.02074400000004	-49.88077000000000	0.07233100000000	0.00000000000000	-0.08374000000000	0.00000000000000	-5.25251100000000	0.00000000000000	0.00000000000000	-12.75914600000000	0.00000000000000	
12.37494800000000	-11.41639400000000	49.84128400000000	-11.86748900000000	0.26902600000000	0.00000000000000	0.09944000000000	-50.79828800000000	792.26075600000001	-49.46828700000000	0.07144200000000	0.00000000000000	-0.08363500000000	0.00000000000000	-6.00298400000000	0.00000000000000	0.00000000000000	-12.79689500000000	0.00000000000000	
12.37661500000000	-12.24975800000000	57.12457300000000	-13.06625700000000	0.27311400000000	0.00000000000000	0.10004800000000	-51.63966600000000	789.37663399999997	-49.03808400000000	0.07055700000000	0.00000000000000	-0.08352600000000	0.00000000000000	-6.71455500000000	0.00000000000000	0.00000000000000	-12.83810000000000	0.00000000000000	
12.37828800000000	-12.86561800000000	64.37364900000000	-14.11794800000000	0.27697200000000	0.00000000000000	0.10060400000000	-52.49416400000000	786.36616600000002	-48.59024200000000	0.06967600000000	0.00000000000000	-0.08341500000000	0.00000000000000	-7.37167900000000	0.00000000000000	0.00000000000000	-12.88261400000000	0.00000000000000	
12.37995500000000	-13.24789500000000	71.51672800000000	-15.00388200000000	0.28063400000000	0.00000000000000	0.10111800000000	-53.36072300000000	783.22710199999995	-48.12485200000000	0.06880100000000	0.00000000000000	-0.08330000000000	0.00000000000000	-7.96301200000000	0.00000000000000	0.00000000000000	-12.93027200000000	0.00000000000000	
12.38162000000000	-13.39177500000000	78.50834999999999	-15.71486100000000	0.28412100000000	0.00000000000000	0.10159400000000	-54.23819100000000	779.95715399999995	-47.64202300000000	0.06793200000000	0.00000000000000	-0.08318300000000	0.00000000000000	-8.48165800000000	0.00000000000000	0.00000000000000	-12.98088800000000	0.00000000000000	
12.38329000000000	-13.30263600000000	85.32898700000000	-16.25050300000000	0.28745500000000	0.00000000000000	0.10203800000000	-55.12532800000000	776.55400899999995	-47.14187600000000	0.06707100000000	0.00000000000000	-0.08306200000000	0.00000000000000	-8.92502300000000	0.00000000000000	0.00000000000000	-13.03425800000000	0.00000000000000	
12.38495400000000	-12.99432500000000	91.98256900000000	-16.61797000000000	0.29065200000000	0.00000000000000	0.10245300000000	-56.02080300000000	773.01533400000005	-46.62455100000000	0.06621700000000	0.00000000000000	-0.08293700000000	0.00000000000000	-9.29434400000000	0.00000000000000	0.00000000000000	-13.09015800000000	0.00000000000000	
12.38661700000000	-12.48703600000000	98.49251800000000	-16.83029300000000	0.29372400000000	0.00000000000000	0.10284200000000	-56.92320100000000	769.33878700000002	-46.09020000000000	0.06537300000000	0.00000000000000	-0.08281000000000	0.00000000000000	-9.59397300000000	0.00000000000000	0.00000000000000	-13.14834600000000	0.00000000000000	
12.38828400000000	-11.80503400000000	104.89685700000000	-16.90451500000000	0.29668100000000	0.00000000000000	0.10320900000000	-57.83102000000000	765.52202199999999	-45.53899600000000	0.06453800000000	0.00000000000000	-0.08267900000000	0.00000000000000	-9.83054100000000	0.00000000000000	0.00000000000000	-13.20856400000000	0.00000000000000	
12.38995600000000	-10.97443400000000	111.24297700000000	-16.85982000000000	0.29953300000000	0.00000000000000	0.10355600000000	-58.74267600000000	761.56270199999994	-44.97112900000000	0.06371300000000	0.00000000000000	-0.08254500000000	0.00000000000000	-10.01206700000000	0.00000000000000	0.00000000000000	-13.27053400000000	0.00000000000000	
12.39162200000000	-10.02121900000000	117.58253400000000	-16.71582100000000	0.30228600000000	0.00000000000000	0.10388500000000	-59.65650400000000	757.45850600000006	-44.38680600000000	0.06290000000000	0.00000000000000	-0.08240700000000	0.00000000000000	-10.14710800000000	0.00000000000000	0.00000000000000	-13.33396400000000	0.00000000000000	
12.39329000000000	-8.96959700000000	123.96687300000001	-16.49110600000000	0.30494600000000	0.00000000000000	0.10419700000000	-60.57076300000000	753.20714299999997	-43.78625600000000	0.06209900000000	0.00000000000000	-0.08226600000000	0.00000000000000	-10.24401500000000	0.00000000000000	0.00000000000000	-13.39854500000000	0.00000000000000	
12.39495200000000	-7.84078100000000	130.44323499999999	-16.20210800000000	0.30751800000000	0.00000000000000	0.10449500000000	-61.48363600000000	748.80636000000004	-43.16972800000000	0.06131000000000	0.00000000000000	-0.08212200000000	0.00000000000000	-10.31032600000000	0.00000000000000	0.00000000000000	-13.46395300000000	0.00000000000000	
12.39661700000000	-6.65220600000000	137.05191500000001	-15.86234500000000	0.31000400000000	0.00000000000000	0.10478000000000	-62.39323700000000	744.25395600000002	-42.53749300000000	0.06053500000000	0.00000000000000	-0.08197500000000	0.00000000000000	-10.35232200000000	0.00000000000000	0.00000000000000	-13.52985100000000	0.00000000000000	
12.39828400000000	-5.41717000000000	143.82440800000001	-15.48201200000000	0.31240900000000	0.00000000000000	0.10505300000000	-63.29761000000000	739.54779199999996	-41.88984500000000	0.05977300000000	0.00000000000000	-0.08182400000000	0.00000000000000	-10.37476600000000	0.00000000000000	0.00000000000000	-13.59588900000000	0.00000000000000	
12.39997500000000	-4.14483800000000	150.78251900000001	-15.06789100000000	0.31473400000000	0.00000000000000	0.10531400000000	-64.19473800000000	734.68580699999995	-41.22710000000000	0.05902500000000	0.00000000000000	-0.08167000000000	0.00000000000000	-10.38079400000000	0.00000000000000	0.00000000000000	-13.66170400000000	0.00000000000000	
12.40161600000000	-2.84056600000000	157.93831800000001	-14.62354000000000	0.31698000000000	0.00000000000000	0.10556500000000	-65.08254700000001	729.66602899999998	-40.54959900000000	0.05829100000000	0.00000000000000	-0.08151300000000	0.00000000000000	-10.37195700000000	0.00000000000000	0.00000000000000	-13.72692300000000	0.00000000000000	
12.40328100000000	-1.50643900000000	165.29479400000000	-14.14968700000000	0.31915000000000	0.00000000000000	0.10580700000000	-65.95890700000000	724.48659299999997	-39.85770800000000	0.05757200000000	0.00000000000000	-0.08135200000000	0.00000000000000	-10.34837200000000	0.00000000000000	0.00000000000000	-13.79116400000000	0.00000000000000	
12.40495100000000	-0.14195700000000	172.84703099999999	-13.64476400000000	0.32124400000000	0.00000000000000	0.10604100000000	-66.82164000000000	719.14574900000002	-39.15181600000000	0.05686800000000	0.00000000000000	-0.08118900000000	0.00000000000000	-10.30896500000000	0.00000000000000	0.00000000000000	-13.85403500000000	0.00000000000000	
